# xmcd CD database file
#
# Track frame offsets:
#	150
#	14023
#	34288
#	51593
#	65425
#	78775
#	95743
#	109410
#	123413
#	137900
#	146805
#	163468
#	176120
#	188908
#	206604
#	221820
#	232150
#	248798
#	261230
#	275218
#
# Disc length: 3915 seconds
#
# Revision: 0
# Processed by: cddbd v1.5.2PL0 Copyright (c) Steve Scherf et al.
# Submitted via: CDex 1.70beta2
#
DISCID=500f4914
DTITLE=Various Artist - 093 - Kilometer 330 - CD - 02
DYEAR=1999
DGENRE=Country
TTITLE0=Jonny Hill - Suchst du Gold
TTITLE1=Abi Hoffmann - Liebe ist mehr
TTITLE2=Rosi Funck - Was ist schon Liebe
TTITLE3=Nashville Misic Company - Kaum zu glauben
TTITLE4=Joe Hodgkins Boss Band - Zum achtenmale 40
TTITLE5=Tex Haper - Ich war der 5. Beatle
TTITLE6=Linda Feller - Hitze der Nacht
TTITLE7=Black Bottom Skiffle Group - Host denn du mein Briaf net griagt
TTITLE8=Dagmar - Nichts bleibt wie es einmal war
TTITLE9=Mr. Miller - Teufels - Ritt ( Instr. )
TTITLE10=Marie - Louise Werth - Ich verlieb mich nie mehr
TTITLE11=Ladies Country Expreﬂ - Wo sind die Couwboys
TTITLE12=Hanna and Daana - Komm und tanze mit mir
TTITLE13=Michael Holm - Lucille ( Muﬂt du jetzt gerade gehen )
TTITLE14=Rubberduck - Truck Stop
TTITLE15=Freddy Quinn - die schˆnste Frau von Texas
TTITLE16=Jonny Hill - Laﬂ es so nicht enden
TTITLE17=Die Melker - Help Me Melken
TTITLE18=Suzanne Klee - Wenn du nicht weiﬂt wohin
TTITLE19=Larry Schuba and Western Union - Wieder unterwegs
EXTD=YEAR: 1999
EXTT0=
EXTT1=
EXTT2=
EXTT3=
EXTT4=
EXTT5=
EXTT6=
EXTT7=
EXTT8=
EXTT9=
EXTT10=
EXTT11=
EXTT12=
EXTT13=
EXTT14=
EXTT15=
EXTT16=
EXTT17=
EXTT18=
EXTT19=
PLAYORDER=
